<?xml version="1.0" encoding="UTF-8" standalone="no"?>
<!DOCTYPE svg PUBLIC "-//W3C//DTD SVG 1.1//EN" "http://www.w3.org/Graphics/SVG/1.1/DTD/svg11.dtd">
<svg width="100%" height="100%" viewBox="0 0 2000 2000" version="1.1" xmlns="http://www.w3.org/2000/svg" xmlns:xlink="http://www.w3.org/1999/xlink" xml:space="preserve" xmlns:serif="http://www.serif.com/" style="fill-rule:evenodd;clip-rule:evenodd;stroke-linejoin:round;stroke-miterlimit:2;">
    <rect id="Artboard1" x="0" y="0" width="2000" height="2000" style="fill:none;"/>
    <clipPath id="_clip1">
        <rect id="Artboard11" serif:id="Artboard1" x="0" y="0" width="2000" height="2000"/>
    </clipPath>
    <g clip-path="url(#_clip1)">
        <g transform="matrix(1.606357,0,0,1.606357,-606.357265,-935.374199)">
            <g transform="matrix(0.649155,0,0,0.648405,324.216875,530.537845)">
                <rect x="82.04" y="79.823" width="1917.96" height="1920.177" style="fill:rgb(180,168,206);"/>
            </g>
            <g transform="matrix(0.675339,0.885716,-0.885716,0.675339,881.460981,-911.106001)">
                <path d="M1416.285,875.272C1469.077,763.848 1526.655,670.404 1567.03,670.404C1640.063,670.404 1769.383,976.154 1824.851,1141.014C1823.342,1141.414 1821.815,1141.776 1820.271,1142.099C1799.054,1146.539 1775.057,1138.55 1748.277,1118.131C1748.277,1118.131 1609.835,1046.283 1601.652,1006.332C1593.468,966.382 1705.579,917.017 1699.178,878.426C1692.777,839.834 1563.247,774.781 1563.247,774.781C1563.247,774.781 1514.34,906.048 1465.721,902.688C1452.399,901.768 1435.185,890.831 1416.285,875.272Z" style="fill:rgb(92,38,124);"/>
            </g>
            <g transform="matrix(2.467665,0,0,2.467665,-1313.55145,-840.497085)">
                <path d="M831.903,755.754C832.749,751.439 834.021,747.593 835.841,744.519C847.915,724.13 888.209,749.472 908.288,696.939C921.05,663.548 909.641,634.298 909.641,634.298C909.641,634.298 957.913,617.421 966.641,634.298C973.538,647.635 964.043,690.017 962.952,719.272C916.024,729.224 865.273,744.109 831.903,755.754Z" style="fill:rgb(63,0,93);"/>
            </g>
            <g transform="matrix(2.467665,0,0,2.467665,-1313.55145,-840.497085)">
                <path d="M979.384,938.645C986.475,944.147 995.027,946.898 1005.041,946.898C1010.641,946.898 1016.441,946.098 1022.441,944.498C1028.441,942.898 1038.47,938.783 1048.881,937.647C1085.957,934.227 1098.151,1009.14 1039.241,1022.498C1031.909,1025.562 1015.841,1028.398 1006.241,1029.398C996.641,1030.398 988.241,1030.898 981.041,1030.898C943.841,1030.898 916.141,1021.398 897.941,1002.398C879.741,983.398 870.641,953.898 870.641,913.898C870.641,913.898 876.729,830.967 870.641,819.273C859.713,798.281 835.841,819.273 835.841,819.273C835.841,819.273 832.289,803.279 830.964,785.387C869.067,792.481 925.051,801.452 940.616,821.866C966.55,855.879 932.145,989.688 951.463,974.959C955.893,971.581 966.295,957.993 979.384,938.645Z" style="fill:rgb(63,0,93);"/>
            </g>
            <g transform="matrix(0.675339,0.885716,-0.885716,0.675339,881.460981,-911.106001)">
                <path d="M1355.463,1196.623C1313.037,1234.996 1282.739,1260.506 1282.739,1238.987C1282.739,1227.863 1290.834,1197.051 1304.515,1155.163C1317.675,1169.998 1336.625,1184.347 1355.463,1196.623Z" style="fill:rgb(92,38,124);"/>
            </g>
            <g transform="matrix(0.675339,0.885716,-0.885716,0.675339,881.460981,-911.106001)">
                <path d="M1355.463,1196.623C1336.625,1184.347 1317.675,1169.998 1304.515,1155.163C1328.827,1080.728 1370.778,971.32 1416.285,875.272C1435.185,890.831 1452.399,901.768 1465.721,902.688C1514.34,906.048 1563.247,774.781 1563.247,774.781C1563.247,774.781 1692.777,839.834 1699.178,878.426C1705.579,917.017 1593.468,966.382 1601.652,1006.332C1609.835,1046.283 1748.277,1118.131 1748.277,1118.131C1775.057,1138.55 1799.054,1146.539 1820.271,1142.099C1821.815,1141.776 1823.342,1141.414 1824.851,1141.014C1841.355,1190.065 1851.321,1226.645 1851.321,1238.987C1851.321,1292.809 1661.793,1052.442 1567.03,1052.442C1510.155,1052.442 1419.147,1139.023 1355.463,1196.623Z" style="fill:rgb(92,38,124);"/>
            </g>
        </g>
    </g>
</svg>
